Simulation
nRows=30
nColumns=15
endheader
time  TH_x TH_y TH_z SC_y  SC_z  SC_x  AC_y  AC_z  AC_x  GH_y  GH_z  GH_yy  EL_x  PS_y
2.6910411985018725  0.000000  0.000000  0.000000  -21.051723409871475  -5.450668777544298  -12.817808884919733  55.91402464160025  9.676559275069854  3.106930814934082  -5.466249721082657  15.860186036258051  32.86516162144806  15.898205678855257  120.000000
2.7312059925093632  0.000000  0.000000  0.000000  -20.096741262059513  -6.181565770494461  -13.317043104136404  56.00763396819459  10.071606159309495  2.9755508252566596  -3.459518761924951  14.733967345214303  32.79817749592448  16.644420545386954  120.000000
2.771370786516854  0.000000  0.000000  0.000000  -19.350098095002263  -6.806231829868134  -13.755753738940122  56.04723516779822  10.442517521705811  2.835728619771775  -0.9583605117664896  13.643044825712895  31.986004438093758  17.304704047655985  120.000000
2.8115355805243447  0.000000  0.000000  0.000000  -18.798176347715184  -7.338119256845459  -14.150621336240627  56.023138666026085  10.77342146404033  2.694972228655462  2.061524316859183  12.576502824781006  30.412917517700553  17.853353862857507  120.000000
2.851700374531835  0.000000  0.000000  0.000000  -18.4161038146127  -7.7885174494518585  -14.511194968941505  55.93929826385643  11.05879432366121  2.5558358816132065  5.6476059668806515  11.535219560182757  28.051375056387798  18.276231480988567  120.000000
2.8918651685393257  0.000000  0.000000  0.000000  -18.174008426786074  -8.165133341885777  -14.839103844002164  55.809172311780635  11.301988954799118  2.416754781563699  9.875226870338034  10.53136977952525  24.851247713077647  18.570768940911698  120.000000
2.9320299625468165  0.000000  0.000000  0.000000  -18.042409466217393  -8.473752726468101  -15.129431635449405  55.64688150144966  11.510930513446986  2.2762920005003195  14.83480011220797  9.583959366430285  20.74705988586408  18.743219264786756  120.000000
2.972194756554307  0.000000  0.000000  0.000000  -17.99491295382872  -8.719614301276795  -15.37512632867018  55.46560715414922  11.694400160526362  2.1334350983268178  20.62287173216106  8.715534180167332  15.664519510594921  18.806965773201437  120.000000
3.012359550561798  0.000000  0.000000  0.000000  -18.008996464462985  -8.907382093511345  -15.569865195812008  55.27705381297694  11.859991837902033  1.9877631074559652  27.314175401511342  7.949601020605955  9.549294959263822  18.781433732403585  120.000000
3.0525243445692882  0.000000  0.000000  0.000000  -18.066567269998405  -9.041459175480936  -15.709267494002537  55.090690154353204  12.013585747245939  1.8394462815619477  34.91780603980624  7.3085245807745975  2.410841656158011  18.689508389195236  120.000000
3.092689138576779  0.000000  0.000000  0.000000  -18.15381524250071  -9.125855644027917  -15.791232306592198  54.91414178470181  12.159523691121409  1.689160704143092  43.32720017125634  6.810785773947107  -5.627411069967658  18.554813762806624  120.000000
3.1328539325842697  0.000000  0.000000  0.000000  -18.260418795900737  -9.163977925759365  -15.815579372878664  54.753068582381275  12.300655229221164  1.538128971470137  52.283303940352646  6.466858839820881  -14.291135747709637  18.3990213663933  120.000000
3.1730187265917604  0.000000  0.000000  0.000000  -18.379361145548053  -9.159064662829405  -15.783770814977473  54.610342177833665  12.438820314380358  1.3882940343864534  61.38922612920304  6.2739625539279125  -23.169647262156285  18.239095730033025  120.000000
3.2131835205992507  0.000000  0.000000  0.000000  -18.506411400902934  -9.113953359724512  -15.699095032159901  54.48641656105926  12.574810746727945  1.2418133838496845  70.20908923190848  6.21424311553162  -31.814682735551095  18.086023649067158  120.000000
3.2533483146067415  0.000000  0.000000  0.000000  -18.638886677445974  -9.030746543352047  -15.566421836116742  54.38120920329071  12.708645939545452  1.1000293620600519  78.39474027181389  6.258692725107053  -39.86704486276077  17.94516931742427  120.000000
3.293513108614232  0.000000  0.000000  0.000000  -18.774632513414105  -8.91089643411878  -15.390589881102134  54.29395004059748  12.840191302936717  0.9638492523008242  85.7525604779493  6.3732233462549255  -47.12322340040536  17.81745974299759  120.000000
3.333677902621723  0.000000  0.000000  0.000000  -18.911133625623524  -8.755050977892818  -15.17526086843806  54.22329444297785  12.970194942844763  0.8343708346417269  92.23404856096826  6.5250641961598195  -53.526256455186406  17.701091159070646  120.000000
3.3738426966292137  0.000000  0.000000  0.000000  -19.044626355942498  -8.563362928686148  -14.922405523288608  54.1678119437301  13.100752404950855  0.7131573644663267  97.88381971085838  6.6863444753023344  -59.11377151467075  17.59322338597365  120.000000
3.414007490636704  0.000000  0.000000  0.000000  -19.17042085063473  -8.335906357442738  -14.632585551299682  54.125240549523404  13.234934179166475  0.6025444233548259  102.79440928897577  6.834027678611944  -63.97278255189962  17.491295088139577  120.000000
3.4541722846441947  0.000000  0.000000  0.000000  -19.283203683501952  -8.072649778296825  -14.30586218550384  54.09258082105299  13.376136528136719  0.5052490812637044  107.07819614254394  6.949369766216111  -68.21147957020625  17.39362450091843  120.000000
3.4943370786516854  0.000000  0.000000  0.000000  -19.377188859914426  -7.773545737131753  -13.942383566432202  54.067390581746984  13.527871008141481  0.42355013471264125  110.84532494100787  7.01831230444949  -71.93721919799826  17.299510022737575  120.000000
3.534501872659176  0.000000  0.000000  0.000000  -19.446344803093115  -7.438515830301247  -13.542585710075638  54.04809469398842  13.693630451147232  0.3596951473723446  114.19235100608682  7.031046498580726  -75.24510090383154  17.20894400682765  120.000000
3.574666666666667  0.000000  0.000000  0.000000  -19.484774707071477  -7.068049979275521  -13.107182483896924  54.03329305674207  13.875958297985663  0.31602439161876  117.20275241602388  6.9808547050703345  -78.2185478130605  17.121508741959637  120.000000
3.614831460674157  0.000000  0.000000  0.000000  -19.487369520077895  -6.663662953955663  -12.637559142684779  54.02130462731533  14.075736242557292  0.2949714346552158  119.95177799070669  6.863383655218456  -80.93417412647364  17.035183598303245  120.000000
3.654996254681648  0.000000  0.000000  0.000000  -19.44991679277252  -6.227611884179152  -12.135813680027683  54.00981275476804  14.291782658697137  0.2993649350088853  122.51096036393693  6.676332810101015  -83.46625722874379  16.945838906539375  120.000000
3.6951610486891386  0.000000  0.000000  0.000000  -19.369334796992252  -5.762799967768469  -11.604608382506642  53.996509905807386  14.520769988927132  0.331980122262526  124.94636065396494  6.4196906197265475  -85.88505351869941  16.847150966832455  120.000000
3.7353258426966294  0.000000  0.000000  0.000000  -19.243693382724896  -5.272189508212267  -11.047578464705847  53.979931576652966  14.75736263421614  0.3951627880387827  127.31361852580382  6.096219365219241  -88.25216394174309  16.731281581430625  120.000000
3.7754906367041197  0.000000  0.000000  0.000000  -19.072515983303525  -4.758863431176001  -10.469586776719847  53.95935150703074  14.994376289987025  0.49074194348941935  129.65923243317866  5.71093385300019  -90.62177316894339  16.589473703553427  120.000000
3.8156554307116104  0.000000  0.000000  0.000000  -18.85726254000281  -4.226138407913211  -9.87675609543591  53.93360104506174  15.222931848934302  0.6203563744719219  132.02799315581126  5.270269030705618  -93.04816577449702  16.41257132667375  120.000000
3.855820224719101  0.000000  0.000000  0.000000  -18.602110178898634  -3.6767341945323975  -9.276281158767995  53.90052785655093  15.432895914902891  0.7854102677280885  134.4686643024282  4.781546301008602  -95.59143329222654  16.19233208397974  120.000000
